<svg width="15" height="15" viewBox="0 0 15 15" fill="none" xmlns="http://www.w3.org/2000/svg">
<path d="M14.6342 12.8661L9.26794 7.49981L14.6338 2.13394C15.1221 1.64569 15.1221 0.854437 14.6338 0.366187C14.1456 -0.122062 13.3543 -0.122062 12.8661 0.366187L7.50019 5.73206L2.13431 0.366187C1.64606 -0.121687 0.854437 -0.121687 0.366562 0.366187C-0.121687 0.854437 -0.121687 1.64569 0.366562 2.13394L5.73244 7.49981L0.366187 12.8661C-0.122062 13.3543 -0.122062 14.1456 0.366187 14.6338C0.610312 14.8779 0.930188 14.9998 1.25006 14.9998C1.56994 14.9998 1.88981 14.8779 2.13394 14.6338L7.50019 9.26756L12.8664 14.6338C13.1106 14.8779 13.4304 14.9998 13.7503 14.9998C14.0702 14.9998 14.3901 14.8779 14.6342 14.6338C15.1224 14.1456 15.1224 13.3543 14.6342 12.8661Z" fill="white"/>
</svg>
